<?xml version="1.0" encoding="UTF-8" standalone="no"?>
<!DOCTYPE svg PUBLIC "-//W3C//DTD SVG 1.1//EN"
 "http://www.w3.org/Graphics/SVG/1.1/DTD/svg11.dtd">
<!-- Generated by graphviz version 2.43.0 (0)
 -->
<!-- Title: G Pages: 1 -->
<svg width="432pt" height="743pt"
 viewBox="0.00 0.00 431.69 743.00" xmlns="http://www.w3.org/2000/svg" xmlns:xlink="http://www.w3.org/1999/xlink">
<g id="graph0" class="graph" transform="scale(1 1) rotate(0) translate(4 739)">
<title>G</title>
<polygon fill="white" stroke="transparent" points="-4,4 -4,-739 427.69,-739 427.69,4 -4,4"/>
<!-- submit -->
<g id="node1" class="node">
<title>submit</title>
<polygon fill="#98f5ff" stroke="black" points="237.7,-735 134.7,-735 134.7,-699 237.7,-699 237.7,-735"/>
<text text-anchor="middle" x="186.2" y="-713.3" font-family="Times,serif" font-size="14.00">Send Username</text>
</g>
<!-- intent -->
<g id="node2" class="node">
<title>intent</title>
<polygon fill="none" stroke="black" points="186.2,-662 127.2,-624 186.2,-586 245.2,-624 186.2,-662"/>
<text text-anchor="middle" x="186.2" y="-627.8" font-family="Times,serif" font-size="14.00">Intent</text>
<text text-anchor="middle" x="186.2" y="-612.8" font-family="Times,serif" font-size="14.00">to Buy?</text>
</g>
<!-- submit&#45;&gt;intent -->
<g id="edge1" class="edge">
<title>submit&#45;&gt;intent</title>
<path fill="none" stroke="black" d="M186.2,-698.88C186.2,-691.25 186.2,-681.83 186.2,-672.31"/>
<polygon fill="black" stroke="black" points="189.7,-672.02 186.2,-662.02 182.7,-672.02 189.7,-672.02"/>
</g>
<!-- demo_ad -->
<g id="node4" class="node">
<title>demo_ad</title>
<ellipse fill="none" stroke="black" cx="352.2" cy="-624" rx="71.49" ry="18"/>
<text text-anchor="middle" x="352.2" y="-620.3" font-family="Times,serif" font-size="14.00">Demographic Ad</text>
</g>
<!-- intent&#45;&gt;demo_ad -->
<g id="edge3" class="edge">
<title>intent&#45;&gt;demo_ad</title>
<path fill="none" stroke="black" d="M245.66,-624C253.73,-624 262.12,-624 270.49,-624"/>
<polygon fill="black" stroke="black" points="270.68,-627.5 280.68,-624 270.68,-620.5 270.68,-627.5"/>
<text text-anchor="middle" x="262.95" y="-630.8" font-family="Times,serif" font-size="14.00">No</text>
</g>
<!-- has_intent -->
<g id="node3" class="node">
<title>has_intent</title>
<ellipse fill="none" stroke="black" cx="44.2" cy="-624" rx="44.39" ry="18"/>
<text text-anchor="middle" x="44.2" y="-620.3" font-family="Times,serif" font-size="14.00">Intent Ad</text>
</g>
<!-- has_intent&#45;&gt;intent -->
<g id="edge2" class="edge">
<title>has_intent&#45;&gt;intent</title>
<path fill="none" stroke="black" d="M98.91,-624C108.1,-624 117.67,-624 126.97,-624"/>
<polygon fill="black" stroke="black" points="98.74,-620.5 88.74,-624 98.74,-627.5 98.74,-620.5"/>
<text text-anchor="middle" x="107.79" y="-630.8" font-family="Times,serif" font-size="14.00">Yes</text>
</g>
<!-- ad_bucket -->
<g id="node6" class="node">
<title>ad_bucket</title>
<polygon fill="none" stroke="black" points="235.7,-520 160.7,-520 160.7,-484 235.7,-484 235.7,-520"/>
<text text-anchor="middle" x="198.2" y="-498.3" font-family="Times,serif" font-size="14.00">Ad Bucket</text>
</g>
<!-- has_intent&#45;&gt;ad_bucket -->
<g id="edge4" class="edge">
<title>has_intent&#45;&gt;ad_bucket</title>
<path fill="none" stroke="black" d="M63.7,-607.8C90.04,-587.28 137.22,-550.51 168.12,-526.44"/>
<polygon fill="black" stroke="black" points="170.63,-528.91 176.37,-520.01 166.33,-523.39 170.63,-528.91"/>
<text text-anchor="middle" x="172.7" y="-556.8" font-family="Times,serif" font-size="14.00">Intent</text>
<text text-anchor="middle" x="172.7" y="-541.8" font-family="Times,serif" font-size="14.00">Bucket</text>
</g>
<!-- demo_ad&#45;&gt;ad_bucket -->
<g id="edge5" class="edge">
<title>demo_ad&#45;&gt;ad_bucket</title>
<path fill="none" stroke="black" d="M331.11,-606.57C304.45,-585.8 258.4,-549.91 228.12,-526.32"/>
<polygon fill="black" stroke="black" points="230.06,-523.39 220.02,-520.01 225.76,-528.92 230.06,-523.39"/>
<text text-anchor="middle" x="316.7" y="-556.8" font-family="Times,serif" font-size="14.00">Demographic</text>
<text text-anchor="middle" x="316.7" y="-541.8" font-family="Times,serif" font-size="14.00">Bucket</text>
</g>
<!-- bloom_filter -->
<g id="node5" class="node">
<title>bloom_filter</title>
<polygon fill="none" stroke="black" points="276.2,-403 193.2,-365 276.2,-327 359.2,-365 276.2,-403"/>
<text text-anchor="middle" x="276.2" y="-368.8" font-family="Times,serif" font-size="14.00">Unique</text>
<text text-anchor="middle" x="276.2" y="-353.8" font-family="Times,serif" font-size="14.00">Impression?</text>
</g>
<!-- bloom_filter&#45;&gt;ad_bucket -->
<g id="edge8" class="edge">
<title>bloom_filter&#45;&gt;ad_bucket</title>
<path fill="none" stroke="black" d="M259.29,-395.26C245.55,-419.05 226.34,-452.29 213.15,-475.11"/>
<polygon fill="black" stroke="black" points="210.05,-473.49 208.07,-483.9 216.11,-476.99 210.05,-473.49"/>
<text text-anchor="middle" x="253.7" y="-439.8" font-family="Times,serif" font-size="14.00">No</text>
</g>
<!-- ad -->
<g id="node8" class="node">
<title>ad</title>
<ellipse fill="none" stroke="black" cx="269.2" cy="-253.5" rx="43.59" ry="18"/>
<text text-anchor="middle" x="269.2" y="-249.8" font-family="Times,serif" font-size="14.00">Serve Ad</text>
</g>
<!-- bloom_filter&#45;&gt;ad -->
<g id="edge9" class="edge">
<title>bloom_filter&#45;&gt;ad</title>
<path fill="none" stroke="black" d="M273.88,-327.84C272.93,-312.9 271.84,-295.86 270.95,-281.97"/>
<polygon fill="black" stroke="black" points="274.42,-281.36 270.29,-271.6 267.43,-281.8 274.42,-281.36"/>
<text text-anchor="middle" x="282.7" y="-297.8" font-family="Times,serif" font-size="14.00">Yes</text>
</g>
<!-- ad_campaign -->
<g id="node7" class="node">
<title>ad_campaign</title>
<polygon fill="none" stroke="black" points="157.7,-383 84.7,-383 84.7,-347 157.7,-347 157.7,-383"/>
<text text-anchor="middle" x="121.2" y="-361.3" font-family="Times,serif" font-size="14.00">Campaign</text>
</g>
<!-- ad_bucket&#45;&gt;ad_campaign -->
<g id="edge6" class="edge">
<title>ad_bucket&#45;&gt;ad_campaign</title>
<path fill="none" stroke="black" d="M188.44,-483.9C175.27,-460.8 151.65,-419.4 136.21,-392.31"/>
<polygon fill="black" stroke="black" points="139.11,-390.34 131.11,-383.39 133.03,-393.81 139.11,-390.34"/>
<text text-anchor="middle" x="197.2" y="-454.8" font-family="Times,serif" font-size="14.00">find</text>
<text text-anchor="middle" x="197.2" y="-439.8" font-family="Times,serif" font-size="14.00">highest</text>
<text text-anchor="middle" x="197.2" y="-424.8" font-family="Times,serif" font-size="14.00">yield</text>
</g>
<!-- ad_campaign&#45;&gt;bloom_filter -->
<g id="edge7" class="edge">
<title>ad_campaign&#45;&gt;bloom_filter</title>
<path fill="none" stroke="black" d="M157.83,-365C166.15,-365 174.48,-365 182.81,-365"/>
<polygon fill="black" stroke="black" points="182.97,-368.5 192.97,-365 182.97,-361.5 182.97,-368.5"/>
</g>
<!-- ad_counter -->
<g id="node9" class="node">
<title>ad_counter</title>
<polygon fill="none" stroke="black" points="143.2,-180 60.2,-142 143.2,-104 226.2,-142 143.2,-180"/>
<text text-anchor="middle" x="143.2" y="-145.8" font-family="Times,serif" font-size="14.00">Impressions</text>
<text text-anchor="middle" x="143.2" y="-130.8" font-family="Times,serif" font-size="14.00">Remaining?</text>
</g>
<!-- ad&#45;&gt;ad_counter -->
<g id="edge11" class="edge">
<title>ad&#45;&gt;ad_counter</title>
<path fill="none" stroke="black" d="M251.41,-237.04C232.64,-220.73 202.55,-194.58 178.86,-173.99"/>
<polygon fill="black" stroke="black" points="180.94,-171.16 171.09,-167.24 176.35,-176.45 180.94,-171.16"/>
</g>
<!-- stats_stream -->
<g id="node10" class="node">
<title>stats_stream</title>
<ellipse fill="none" stroke="black" cx="343.2" cy="-142" rx="45.92" ry="26.74"/>
<text text-anchor="middle" x="343.2" y="-145.8" font-family="Times,serif" font-size="14.00">Stream</text>
<text text-anchor="middle" x="343.2" y="-130.8" font-family="Times,serif" font-size="14.00">Statistics</text>
</g>
<!-- ad&#45;&gt;stats_stream -->
<g id="edge13" class="edge">
<title>ad&#45;&gt;stats_stream</title>
<path fill="none" stroke="black" d="M280.44,-235.87C291.14,-220.03 307.56,-195.73 320.92,-175.96"/>
<polygon fill="black" stroke="black" points="323.92,-177.77 326.62,-167.52 318.12,-173.85 323.92,-177.77"/>
<text text-anchor="middle" x="344.2" y="-201.8" font-family="Times,serif" font-size="14.00"> Asynchronous</text>
</g>
<!-- end_user -->
<g id="node11" class="node">
<title>end_user</title>
<polygon fill="#98f5ff" stroke="black" points="285.2,-38 231.2,-38 231.2,0 285.2,0 285.2,-38"/>
<text text-anchor="middle" x="258.2" y="-22.8" font-family="Times,serif" font-size="14.00">End</text>
<text text-anchor="middle" x="258.2" y="-7.8" font-family="Times,serif" font-size="14.00">User</text>
</g>
<!-- ad&#45;&gt;end_user -->
<g id="edge10" class="edge">
<title>ad&#45;&gt;end_user</title>
<path fill="none" stroke="black" d="M268.35,-235.49C266.46,-195.21 261.88,-97.52 259.57,-48.33"/>
<polygon fill="black" stroke="black" points="263.05,-47.88 259.09,-38.05 256.06,-48.2 263.05,-47.88"/>
</g>
<!-- ad_counter&#45;&gt;ad_campaign -->
<g id="edge12" class="edge">
<title>ad_counter&#45;&gt;ad_campaign</title>
<path fill="none" stroke="black" d="M140.97,-179.33C138.6,-218.98 135.2,-276 135.2,-276 135.2,-276 129.73,-310.75 125.63,-336.82"/>
<polygon fill="black" stroke="black" points="122.13,-336.57 124.03,-346.99 129.04,-337.65 122.13,-336.57"/>
<text text-anchor="middle" x="167.7" y="-264.8" font-family="Times,serif" font-size="14.00">No</text>
<text text-anchor="middle" x="167.7" y="-249.8" font-family="Times,serif" font-size="14.00">(Delete</text>
<text text-anchor="middle" x="167.7" y="-234.8" font-family="Times,serif" font-size="14.00"> Campaign)</text>
</g>
<!-- Timeseries -->
<g id="node12" class="node">
<title>Timeseries</title>
<ellipse fill="none" stroke="black" cx="353.2" cy="-19" rx="50.09" ry="18"/>
<text text-anchor="middle" x="353.2" y="-15.3" font-family="Times,serif" font-size="14.00">Timeseries</text>
</g>
<!-- stats_stream&#45;&gt;Timeseries -->
<g id="edge14" class="edge">
<title>stats_stream&#45;&gt;Timeseries</title>
<path fill="none" stroke="black" d="M345.34,-115.04C346.99,-95.15 349.25,-67.76 350.92,-47.49"/>
<polygon fill="black" stroke="black" points="354.43,-47.59 351.76,-37.34 347.45,-47.02 354.43,-47.59"/>
<text text-anchor="middle" x="366.2" y="-74.8" font-family="Times,serif" font-size="14.00"> insert</text>
<text text-anchor="middle" x="366.2" y="-59.8" font-family="Times,serif" font-size="14.00"> stats</text>
</g>
</g>
</svg>
